name IK_average_walking_HGC.mot																															
datacolumns 32																															
datarows 16																															
range 0.52548209 0.68312672																															
endheader																															
time	pelvis_tilt	pelvis_list	pelvis_rotation	pelvis_tx	pelvis_ty	pelvis_tz	hip_flexion_l	hip_adduction_l	hip_rotation_l	hip_flexion_r	hip_adduction_r	hip_rotation_r	knee_angle_l	knee_angle_r	ankle_angle_l	ankle_angle_r	subtalar_angle_l	subtalar_angle_r	mtp_angle_l	mtp_angle_r	lumbar_extension	lumbar_bending	lumbar_rotation	arm_flex_l	arm_add_l	arm_rot_l	arm_flex_r	arm_add_r	arm_rot_r	elbow_flex_l	elbow_flex_r
0.52548209	0.83543653	-2.71838418	-3.44206027	0.68446845	0.8993827	0.07166461	28.29106441	-1.39694439	-6.55428457	-16.62353031	5.50689455	1.35890721	-12.51568902	-14.06208213	3.06774034	13.46794721	3.54944483	9.45310809	0	0	-7.96091269	2.93516651	7.75645006	-7.41914002	-13.47504151	17.48720408	4.90104739	-21.6440545	14.88728062	10.22128373	36.36801352
0.53599174	0.80744759	-2.56924367	-3.54971734	0.699974	0.89779405	0.07120501	28.39750177	-1.10292562	-6.51116052	-17.05056238	5.12107445	1.13381156	-13.25605474	-15.03356337	2.47761281	12.89765628	3.23268732	10.02241669	0	0	-7.74152312	2.70935581	7.83534449	-7.56248564	-13.43754469	17.82499454	4.63395473	-21.5729437	14.63593716	9.88084593	36.4882269
0.54650138	0.76445742	-2.34863938	-3.62454888	0.71573427	0.89630734	0.07069993	28.49757305	-0.70974043	-6.32772717	-17.35667664	4.65789575	0.84068645	-14.29525759	-16.17108836	1.66190031	12.08747697	2.55557037	10.59073702	0	0	-7.46851899	2.39705467	7.86097074	-7.71039557	-13.4294598	18.15878425	4.28880271	-21.45579677	14.36275598	9.58008789	36.55807598
0.55701102	0.70568052	-2.04858536	-3.66013707	0.73170495	0.89494995	0.07014419	28.59200867	-0.21155493	-6.01766853	-17.52660271	4.11247201	0.48508046	-15.55982044	-17.48485025	0.6514602	10.98914096	1.57163698	11.1319341	0	0	-7.14604794	1.989955	7.82647416	-7.85776658	-13.45223632	18.47686985	3.87528252	-21.2899703	14.07075171	9.32178316	36.57031927
0.56752066	0.63191701	-1.6636228	-3.65239758	0.74782577	0.89375671	0.06953437	28.68128666	0.39306894	-5.60324032	-17.54374034	3.48245189	0.07897236	-16.9786742	-18.98767135	-0.498018	9.56070672	0.35600002	11.61550484	0	0	-6.78274637	1.48298344	7.72827411	-7.99660165	-13.50637583	18.76733343	3.40583707	-21.07444584	13.76481845	9.1091132	36.51785297
0.5780303	0.54581512	-1.1930557	-3.60124512	0.76402606	0.89276358	0.06887219	28.7628397	1.0991069	-5.11320294	-17.39288598	2.76989921	-0.35849293	-18.48721092	-20.69239634	-1.70941387	7.77718201	-1.00285656	12.00872807	0	0	-6.3916328	0.87669746	7.56800826	-8.11720243	-13.59110141	19.01875058	2.89501576	-20.81069035	13.45209603	8.94559814	36.39448061
0.58853994	0.4511147	-0.64046719	-3.51056426	0.78023301	0.8920023	0.06816514	28.82919435	1.89661096	-4.57931647	-17.05844529	1.98060744	-0.80289084	-20.03036356	-22.61337651	-2.89332581	5.6320827	-2.41317414	12.27828437	0	0	-5.98808311	0.17657148	7.35179439	-8.20930303	-13.70499062	19.22053158	2.35758173	-20.50236598	13.1418748	8.83632528	36.19528797
0.59904959	0.35241452	-0.01561864	-3.38868227	0.79637483	0.89149104	0.06742761	28.86730378	2.76909466	-4.03549451	-16.52848016	1.12627161	-1.22484144	-21.55965736	-24.76070006	-3.95695479	3.14923511	-3.78606161	12.39228829	0	0	-5.58898606	-0.60504526	7.09045858	-8.26334996	-13.84554817	19.36379805	1.80869667	-20.15586091	12.84584906	8.7871492	35.91730125
0.60955923	0.25452371	0.66635689	-3.24764873	0.81238461	0.89123326	0.06667946	28.85933887	3.69469834	-3.51573991	-15.79477759	0.22406249	-1.59251429	-23.03187187	-27.13881584	-4.81504032	0.38432775	-5.04255046	12.32225236	0	0	-5.21100748	-1.44994456	6.79794488	-8.27157665	-14.00949849	19.44176824	1.26337041	-19.77973538	12.57799228	8.80468766	35.55926942
0.62006887	0.16212554	1.38605479	-3.10240543	0.82820037	0.89122231	0.0659442	28.78374839	4.64714584	-3.05306173	-14.85213799	-0.70385397	-1.87336448	-24.40654865	-29.7456922	-5.396713	-2.57632349	-6.11609984	12.04430804	0	0	-4.86969086	-2.33524434	6.48954482	-8.22845819	-14.19294352	19.45000624	0.73655365	-19.38418783	12.35462161	8.89623972	35.12116718
0.63057851	0.07919187	2.12083967	-2.96960343	0.84377002	0.89144351	0.0652479	28.6193821	5.59652983	-2.67679209	-13.70250671	-1.63065973	-2.03873103	-25.64809237	-32.5662385	-5.65921408	-5.61589155	-6.96037623	11.54338913	0	0	-4.57739129	-3.23455977	6.18029634	-8.13183861	-14.39135071	19.38722505	0.24263253	-18.98032006	12.19263067	9.06820619	34.60482705
0.64108815	0.00898694	2.8473087	-2.86584885	0.85905143	0.89188358	0.0646169	28.34717196	6.51203682	-2.41099226	-12.35233332	-2.52707129	-2.06623587	-26.72595243	-35.57435896	-5.58734987	-8.60017635	-7.54719851	10.8142689	0	0	-4.34315675	-4.12069515	5.88287091	-7.98239009	-14.60003199	19.25507131	-0.20482206	-18.57913548	12.10897872	9.3260651	34.0129373
0.6515978	-0.04602168	3.54257441	-2.80628389	0.87401474	0.89253352	0.06407644	27.95235079	7.36386424	-2.27248378	-10.81295255	-3.36289716	-1.94239686	-27.61651242	-38.7317218	-5.19385775	-11.38858815	-7.86707058	9.86401843	0	0	-4.17233292	-4.96713312	5.60648756	-7.7833822	-14.81436332	19.05816323	-0.5936523	-18.19086321	12.11922	9.67367545	33.34909028
0.66210744	-0.08419505	4.18522617	-2.80327207	0.88864325	0.89338931	0.06364903	27.42561005	8.12520647	-2.26940871	-9.10019766	-4.10860579	-1.66396396	-28.30415743	-41.98788453	-4.51563674	-13.84629454	-7.92778696	8.71348031	0	0	-4.06661729	-5.74917531	5.35634183	-7.54009504	-15.03005593	18.80376419	-0.91382639	-17.82441023	12.23628633	10.11290103	32.61756288
0.67261708	-0.10511522	4.75658293	-2.86454219	0.90293583	0.8944487	0.06335065	26.76472063	8.7749182	-2.39945478	-7.23493216	-4.73787917	-1.23985363	-28.78321518	-45.28134808	-3.60922222	-15.86019256	-7.75345826	7.39880351	0	0	-4.02366651	-6.44536674	5.1332748	-7.25954073	-15.24349344	18.50175176	-1.15915717	-17.48691485	12.46786065	10.64320452	31.82454594
0.68312672	-0.10951014	5.24069048	-2.99280446	0.91690251	0.89571136	0.0631894	25.97254737	9.29822628	-2.65020836	-5.24103828	-5.22806347	-0.68835391	-29.05517144	-48.54259549	-2.54062506	-17.34516404	-7.37968411	5.96982067	0	0	-4.03832084	-7.03737549	4.93432592	-6.94943334	-15.45188487	18.16329359	-1.32763892	-17.18385384	12.81593532	11.2624609	30.97818685
